# xmcd
#
# Track frame offsets:
#	150
#	12218
#	23326
#	40415
#	54422
#	65813
#	79028
#	97959
#	106535
#	127784
#	138166
#	150459
#	161152
#	167150
#	181574
#	193160
#	206810
#	216720
#	228348
#	241220
#
# Disc length: 3397 seconds
# Revision: 0
# Processed by: cddbd v1.5.2PL0 Copyright (c) Steve Scherf et al.
# Submitted via: dBpowerAMP V12.0
#
DISCID=000d4314
DTITLE=Various Artist - True Bluegrass Fiddle
DYEAR=2012
DGENRE=Country
TTITLE0=James Price - Soldier's Joy
TTITLE1=Kenny Baker - Dry and Dusty
TTITLE2=Art Stamper - Goodbye Girls I'm Going To Boston
TTITLE3=Ricky Skaggs - Meetin' House Brance
TTITLE4=Joe Greene - Daley's Reel
TTITLE5=Bobby Hicks - Scotland
TTITLE6=Kenny Baker and Joe Greene - High Country
TTITLE7=Billy Baker - Billy Wilson
TTITLE8=Richard Greene - Done Gone Waltz
TTITLE9=Bobby Hicks - East Tennessee Blues
TTITLE10=Kenny Baker - Spider Bit the Baby
TTITLE11=Glen Duncan - Williamsburg
TTITLE12=Lyman Enloe - Sunflower Hornpipe
TTITLE13=Art Stamper - Midnight On the Water
TTITLE14=Joe Greene - Dusty Miller
TTITLE15=Chubby Anthony - Orange Blossom Special
TTITLE16=Curly Ray Cline - Leather Breeches
TTITLE17=Kenny Baker and Joe Greene - Live and Let Live
TTITLE18=Johnny Warren - St. Anne's Reel
TTITLE19=Kenny Baker - Grey Eagle
EXTD=
EXTT0=
EXTT1=
EXTT2=
EXTT3=
EXTT4=
EXTT5=
EXTT6=
EXTT7=
EXTT8=
EXTT9=
EXTT10=
EXTT11=
EXTT12=
EXTT13=
EXTT14=
EXTT15=
EXTT16=
EXTT17=
EXTT18=
EXTT19=
PLAYORDER=
